<svg width="58" height="59" viewBox="0 0 58 59" fill="none" xmlns="http://www.w3.org/2000/svg">
<path d="M51.9819 28.8469C51.9819 29.447 51.7223 29.9991 51.2503 30.4554L35.5798 46.396C35.0842 46.8522 34.5885 47.0442 34.0457 47.0442C32.8657 47.0442 31.9689 46.1801 31.9689 44.9797C31.9689 44.4276 32.1813 43.8513 32.559 43.4671L37.8218 37.9936L45.7987 30.6233L40.0638 31.0075H10.2331C9.00595 31.0075 8.15625 30.0952 8.15625 28.8469C8.15625 27.5986 9.00595 26.7101 10.2331 26.7101H40.0638L45.7751 27.0703L37.8218 19.7001L32.559 14.2505C32.1576 13.8424 31.9689 13.2902 31.9689 12.714C31.9689 11.5377 32.8657 10.6494 34.0457 10.6494C34.5885 10.6494 35.1077 10.8655 35.627 11.3696L51.2503 27.2384C51.7223 27.7185 51.9819 28.2707 51.9819 28.8469Z" fill="white"/>
</svg>
