<svg width="416" height="76" viewBox="0 0 416 76" fill="none" xmlns="http://www.w3.org/2000/svg">
<path d="M24.4071 38.3357L32.7569 52.705L51.5119 19.5348H59.4763L32.7569 66L16.4427 38.3357H24.4071Z" fill="#4799FF"/>
<path d="M65 10H0L14.5158 35.1127H38.9229L42.5198 28.9353H18.7549L16.8281 25.4436H43.5474L46.2451 19.5348H13.4881L11.3043 15.7746H61.6601L65 10Z" fill="#4799FF"/>
<path d="M75.5227 62V15.4545H107.977V24.5909H86.7727V34.1364H106.318V43.2955H86.7727V52.8636H107.977V62H75.5227ZM127.773 62.5C125.197 62.5 122.856 61.8333 120.75 60.5C118.644 59.1667 116.962 57.1667 115.705 54.5C114.447 51.8333 113.818 48.5227 113.818 44.5682C113.818 40.4621 114.47 37.0833 115.773 34.4318C117.076 31.7803 118.78 29.8182 120.886 28.5455C123.008 27.2727 125.288 26.6364 127.727 26.6364C129.561 26.6364 131.129 26.9545 132.432 27.5909C133.735 28.2121 134.811 29.0152 135.659 30C136.508 30.9848 137.152 32.0076 137.591 33.0682H137.818V15.4545H148.932V62H137.932V56.3409H137.591C137.121 57.4167 136.455 58.4242 135.591 59.3636C134.727 60.303 133.644 61.0606 132.341 61.6364C131.053 62.2121 129.53 62.5 127.773 62.5ZM131.636 53.8409C132.985 53.8409 134.136 53.4621 135.091 52.7045C136.045 51.9318 136.78 50.8485 137.295 49.4545C137.811 48.0606 138.068 46.4242 138.068 44.5455C138.068 42.6364 137.811 40.9924 137.295 39.6136C136.795 38.2348 136.061 37.1742 135.091 36.4318C134.136 35.6894 132.985 35.3182 131.636 35.3182C130.258 35.3182 129.091 35.697 128.136 36.4545C127.182 37.2121 126.455 38.2803 125.955 39.6591C125.47 41.0379 125.227 42.6667 125.227 44.5455C125.227 46.4242 125.477 48.0606 125.977 49.4545C126.477 50.8485 127.197 51.9318 128.136 52.7045C129.091 53.4621 130.258 53.8409 131.636 53.8409ZM178.483 46.9318V27.0909H189.574V62H178.983V55.5H178.619C177.847 57.6364 176.528 59.3333 174.665 60.5909C172.816 61.8333 170.581 62.4545 167.96 62.4545C165.581 62.4545 163.491 61.9091 161.688 60.8182C159.884 59.7273 158.483 58.2045 157.483 56.25C156.483 54.2803 155.975 51.9773 155.96 49.3409V27.0909H167.074V47.1591C167.089 49.053 167.589 50.5455 168.574 51.6364C169.559 52.7273 170.9 53.2727 172.597 53.2727C173.703 53.2727 174.695 53.0303 175.574 52.5455C176.468 52.0455 177.172 51.3258 177.688 50.3864C178.218 49.4318 178.483 48.2803 178.483 46.9318ZM220.966 15.4545L231.375 49.5455H231.761L242.17 15.4545H254.761L239.057 62H224.08L208.375 15.4545H220.966ZM259.773 62V27.0909H270.886V62H259.773ZM265.341 23.0227C263.78 23.0227 262.439 22.5076 261.318 21.4773C260.197 20.4318 259.636 19.1742 259.636 17.7045C259.636 16.25 260.197 15.0076 261.318 13.9773C262.439 12.9318 263.78 12.4091 265.341 12.4091C266.917 12.4091 268.258 12.9318 269.364 13.9773C270.485 15.0076 271.045 16.25 271.045 17.7045C271.045 19.1742 270.485 20.4318 269.364 21.4773C268.258 22.5076 266.917 23.0227 265.341 23.0227ZM294.256 62.6591C290.574 62.6591 287.415 61.9015 284.778 60.3864C282.157 58.8712 280.142 56.7652 278.733 54.0682C277.324 51.3561 276.619 48.2197 276.619 44.6591C276.619 41.0833 277.324 37.947 278.733 35.25C280.157 32.5379 282.18 30.4242 284.801 28.9091C287.438 27.3939 290.581 26.6364 294.233 26.6364C297.46 26.6364 300.271 27.2197 302.665 28.3864C305.074 29.553 306.953 31.2045 308.301 33.3409C309.665 35.4621 310.384 37.9545 310.46 40.8182H300.074C299.862 39.0303 299.256 37.6288 298.256 36.6136C297.271 35.5985 295.983 35.0909 294.392 35.0909C293.104 35.0909 291.975 35.4545 291.006 36.1818C290.036 36.8939 289.278 37.9545 288.733 39.3636C288.203 40.7576 287.938 42.4848 287.938 44.5455C287.938 46.6061 288.203 48.3485 288.733 49.7727C289.278 51.1818 290.036 52.25 291.006 52.9773C291.975 53.6894 293.104 54.0455 294.392 54.0455C295.422 54.0455 296.331 53.8258 297.119 53.3864C297.922 52.947 298.581 52.303 299.097 51.4545C299.612 50.5909 299.938 49.5455 300.074 48.3182H310.46C310.354 51.197 309.634 53.7121 308.301 55.8636C306.983 58.0152 305.127 59.6894 302.733 60.8864C300.354 62.0682 297.528 62.6591 294.256 62.6591ZM335.852 27.0909V35.2727H313.83V27.0909H335.852ZM318.443 18.7273H329.557V51.0227C329.557 51.7045 329.663 52.2576 329.875 52.6818C330.102 53.0909 330.428 53.3864 330.852 53.5682C331.277 53.7348 331.784 53.8182 332.375 53.8182C332.799 53.8182 333.246 53.7803 333.716 53.7045C334.201 53.6136 334.564 53.5379 334.807 53.4773L336.489 61.5C335.958 61.6515 335.208 61.8409 334.239 62.0682C333.284 62.2955 332.14 62.4394 330.807 62.5C328.201 62.6212 325.966 62.3182 324.102 61.5909C322.254 60.8485 320.837 59.697 319.852 58.1364C318.883 56.5758 318.413 54.6136 318.443 52.25V18.7273ZM357.443 62.6591C353.777 62.6591 350.625 61.9091 347.989 60.4091C345.367 58.8939 343.345 56.7879 341.92 54.0909C340.511 51.3788 339.807 48.2348 339.807 44.6591C339.807 41.0682 340.511 37.9242 341.92 35.2273C343.345 32.5152 345.367 30.4091 347.989 28.9091C350.625 27.3939 353.777 26.6364 357.443 26.6364C361.11 26.6364 364.254 27.3939 366.875 28.9091C369.511 30.4091 371.534 32.5152 372.943 35.2273C374.367 37.9242 375.08 41.0682 375.08 44.6591C375.08 48.2348 374.367 51.3788 372.943 54.0909C371.534 56.7879 369.511 58.8939 366.875 60.4091C364.254 61.9091 361.11 62.6591 357.443 62.6591ZM357.511 54.2727C358.845 54.2727 359.973 53.8636 360.898 53.0455C361.822 52.2273 362.527 51.0909 363.011 49.6364C363.511 48.1818 363.761 46.5 363.761 44.5909C363.761 42.6515 363.511 40.9545 363.011 39.5C362.527 38.0455 361.822 36.9091 360.898 36.0909C359.973 35.2727 358.845 34.8636 357.511 34.8636C356.133 34.8636 354.966 35.2727 354.011 36.0909C353.072 36.9091 352.352 38.0455 351.852 39.5C351.367 40.9545 351.125 42.6515 351.125 44.5909C351.125 46.5 351.367 48.1818 351.852 49.6364C352.352 51.0909 353.072 52.2273 354.011 53.0455C354.966 53.8636 356.133 54.2727 357.511 54.2727ZM380.773 62V27.0909H391.568V33.4545H391.932C392.568 31.1515 393.606 29.4394 395.045 28.3182C396.485 27.1818 398.159 26.6136 400.068 26.6136C400.583 26.6136 401.114 26.6515 401.659 26.7273C402.205 26.7879 402.712 26.8864 403.182 27.0227V36.6818C402.652 36.5 401.955 36.3561 401.091 36.25C400.242 36.1439 399.485 36.0909 398.818 36.0909C397.5 36.0909 396.311 36.3864 395.25 36.9773C394.205 37.553 393.379 38.3636 392.773 39.4091C392.182 40.4394 391.886 41.6515 391.886 43.0455V62H380.773Z" fill="white"/>
</svg>
